<?xml version="1.0" encoding="utf-8"?>
<!-- Generator: Adobe Illustrator 16.0.0, SVG Export Plug-In . SVG Version: 6.00 Build 0)  -->
<!DOCTYPE svg PUBLIC "-//W3C//DTD SVG 1.1//EN" "http://www.w3.org/Graphics/SVG/1.1/DTD/svg11.dtd">
<svg version="1.1" id="Layer_1" xmlns="http://www.w3.org/2000/svg" xmlns:xlink="http://www.w3.org/1999/xlink" x="0px" y="0px"
	 width="41.822px" height="41.928px" viewBox="0 0 41.822 41.928" enable-background="new 0 0 41.822 41.928" xml:space="preserve">
<path fill="#F7CA18" d="M41.822,17.71C41.822,7.928,32.457,0,20.909,0C9.362,0,0,7.928,0,17.71c0,4.986,2.439,9.482,6.353,12.699
	H6.342c0,0,3.916,3.584,0,11.524h8.783c0,0,0-3.938,0-7.214c0.783,0.193,1.592,0.337,2.411,0.449v6.765h6.749v-6.765
	c0.829-0.112,1.646-0.262,2.438-0.457c0,3.276,0,7.222,0,7.222h8.827c-3.938-7.94,0-11.524,0-11.524h-0.085
	C39.381,27.192,41.822,22.696,41.822,17.71z M10.733,29.11c-2.746,0-4.972-2.407-4.972-5.377c0-2.965,2.226-5.368,4.972-5.368
	c2.743,0,4.97,2.403,4.97,5.368C15.704,26.703,13.477,29.11,10.733,29.11z M31.087,29.11c-2.746,0-4.974-2.407-4.974-5.377
	c0-2.965,2.228-5.368,4.974-5.368s4.973,2.403,4.973,5.368C36.059,26.703,33.833,29.11,31.087,29.11z"/>
</svg>
